<?xml version="1.0" encoding="UTF-8"?>
<!DOCTYPE svg PUBLIC "-//W3C//DTD SVG 1.1//EN" "http://www.w3.org/Graphics/SVG/1.1/DTD/svg11.dtd">
<svg xmlns="http://www.w3.org/2000/svg" version="1.1" width="1070px" height="232px" style="shape-rendering:geometricPrecision; text-rendering:geometricPrecision; image-rendering:optimizeQuality; fill-rule:evenodd; clip-rule:evenodd" xmlns:xlink="http://www.w3.org/1999/xlink">
<g><path style="opacity:0.999" fill="#171716" d="M 408.5,8.5 C 427.5,8.5 446.5,8.5 465.5,8.5C 465.5,77.8333 465.5,147.167 465.5,216.5C 446.5,216.5 427.5,216.5 408.5,216.5C 408.5,147.167 408.5,77.8333 408.5,8.5 Z"/></g>
<g><path style="opacity:0.337" fill="#8b8b8b" d="M 408.5,8.5 C 427.659,7.50299 446.993,7.16965 466.5,7.5C 466.833,77.3353 466.499,147.002 465.5,216.5C 465.5,147.167 465.5,77.8333 465.5,8.5C 446.5,8.5 427.5,8.5 408.5,8.5 Z"/></g>
<g><path style="opacity:0.998" fill="#fdba71" d="M 488.5,7.5 C 507.5,7.5 526.5,7.5 545.5,7.5C 545.5,77.1667 545.5,146.833 545.5,216.5C 526.167,216.5 506.833,216.5 487.5,216.5C 487.17,146.762 487.504,77.0956 488.5,7.5 Z"/></g>
<g><path style="opacity:0.999" fill="#171716" d="M 567.5,8.5 C 586.5,8.5 605.5,8.5 624.5,8.5C 624.5,77.8333 624.5,147.167 624.5,216.5C 605.5,216.5 586.5,216.5 567.5,216.5C 567.5,147.167 567.5,77.8333 567.5,8.5 Z"/></g>
<g><path style="opacity:0.208" fill="#a5a5a5" d="M 567.5,8.5 C 586.659,7.50299 605.993,7.16965 625.5,7.5C 625.833,77.3353 625.499,147.002 624.5,216.5C 624.5,147.167 624.5,77.8333 624.5,8.5C 605.5,8.5 586.5,8.5 567.5,8.5 Z"/></g>
<g><path style="opacity:0.998" fill="#181817" d="M 879.5,77.5 C 887.136,69.5098 896.47,64.3431 907.5,62C 951.903,56.7845 977.403,76.2845 984,120.5C 986.327,137.617 985.66,154.617 982,171.5C 974.289,202.877 954.289,219.21 922,220.5C 901.392,221.112 885.225,213.112 873.5,196.5C 873.44,195.957 873.107,195.624 872.5,195.5C 871.614,196.325 871.281,197.325 871.5,198.5C 870.61,204.455 869.276,210.288 867.5,216C 852.17,216.5 836.837,216.667 821.5,216.5C 821.5,147.167 821.5,77.8333 821.5,8.5C 840.167,8.5 858.833,8.5 877.5,8.5C 877.167,31.8429 877.5,55.1762 878.5,78.5C 879.107,78.3764 879.44,78.0431 879.5,77.5 Z M 901.5,103.5 C 914.349,103.188 922.516,109.188 926,121.5C 927.971,134.17 927.971,146.837 926,159.5C 923.53,171.139 916.363,177.139 904.5,177.5C 890.436,177.27 881.936,170.27 879,156.5C 875.945,141.241 877.612,126.574 884,112.5C 888.765,107.202 894.599,104.202 901.5,103.5 Z"/></g>
<g><path style="opacity:0.431" fill="#727271" d="M 879.5,77.5 C 879.44,78.0431 879.107,78.3764 878.5,78.5C 877.5,55.1762 877.167,31.8429 877.5,8.5C 858.833,8.5 840.167,8.5 821.5,8.5C 821.5,77.8333 821.5,147.167 821.5,216.5C 820.501,147.002 820.167,77.3353 820.5,7.5C 839.833,7.5 859.167,7.5 878.5,7.5C 878.169,31.006 878.502,54.3393 879.5,77.5 Z"/></g>
<g><path style="opacity:0.997" fill="#191918" d="M 216.5,88.5 C 216.5,92.1667 216.5,95.8333 216.5,99.5C 196.5,99.5 176.5,99.5 156.5,99.5C 152.987,68.3848 135.987,57.2182 105.5,66C 95.6448,70.8525 89.4781,78.6859 87,89.5C 83.6667,108.167 83.6667,126.833 87,145.5C 91.5539,163.055 102.887,172.055 121,172.5C 144.803,172.196 157.303,160.196 158.5,136.5C 177.833,136.5 197.167,136.5 216.5,136.5C 216.5,140.5 216.5,144.5 216.5,148.5C 213.168,180.997 196.168,202.83 165.5,214C 136.173,222.666 106.84,222.666 77.5,214C 49.7648,204.597 31.9315,185.763 24,157.5C 16.2341,126.757 17.5675,96.4234 28,66.5C 41.4569,37.9902 63.9569,21.4902 95.5,17C 123.903,11.9577 151.236,15.291 177.5,27C 201.212,40.5666 214.212,61.0666 216.5,88.5 Z"/></g>
<g><path style="opacity:0.997" fill="#191918" d="M 305.5,60.5 C 327.993,59.493 348.66,64.993 367.5,77C 381.804,88.0986 390.638,102.599 394,120.5C 402.139,184.527 373.973,217.86 309.5,220.5C 244.106,217.419 216.272,183.419 226,118.5C 232.798,89.0357 250.964,70.869 280.5,64C 288.929,62.4505 297.263,61.2839 305.5,60.5 Z M 302.5,100.5 C 311.878,99.2806 320.545,101.114 328.5,106C 333.332,110.832 336.165,116.665 337,123.5C 337.903,136.881 337.57,150.214 336,163.5C 332.985,172.514 326.818,178.014 317.5,180C 309.161,181.315 301.161,180.315 293.5,177C 287.59,172.691 284.09,166.858 283,159.5C 280.829,145.433 281.162,131.433 284,117.5C 287.19,108.472 293.356,102.806 302.5,100.5 Z"/></g>
<g><path style="opacity:0.997" fill="#191918" d="M 805.5,180.5 C 809.298,181.483 813.298,181.817 817.5,181.5C 817.5,192.5 817.5,203.5 817.5,214.5C 811.294,217.554 804.627,219.388 797.5,220C 783.104,221.754 769.438,219.42 756.5,213C 751.95,210.117 748.45,206.284 746,201.5C 719.979,220.402 691.479,225.235 660.5,216C 643.616,208.581 635.282,195.581 635.5,177C 635.604,154.904 645.937,139.904 666.5,132C 679.788,127.409 693.455,124.742 707.5,124C 718.845,123.628 730.178,123.128 741.5,122.5C 742.649,105.984 734.983,97.9836 718.5,98.5C 710.811,97.7081 704.311,100.041 699,105.5C 698.187,107.436 697.687,109.436 697.5,111.5C 678.833,111.5 660.167,111.5 641.5,111.5C 641.5,107.833 641.5,104.167 641.5,100.5C 643.111,92.0419 647.111,84.8752 653.5,79C 663.357,71.5729 674.357,66.5729 686.5,64C 708.5,59.3333 730.5,59.3333 752.5,64C 766.845,66.5896 779.345,72.7563 790,82.5C 795.993,90.8145 798.993,100.148 799,110.5C 799.333,132.167 799.667,153.833 800,175.5C 801.055,178.056 802.888,179.723 805.5,180.5 Z M 735.5,150.5 C 737.5,150.5 739.5,150.5 741.5,150.5C 744.077,172.041 734.577,183.041 713,183.5C 698.133,184.316 692.466,177.649 696,163.5C 699.979,158.426 705.146,155.259 711.5,154C 719.57,152.315 727.57,151.148 735.5,150.5 Z"/></g>
<g><path style="opacity:0.345" fill="#898988" d="M 216.5,88.5 C 217.483,92.2984 217.817,96.2984 217.5,100.5C 196.993,100.83 176.66,100.497 156.5,99.5C 176.5,99.5 196.5,99.5 216.5,99.5C 216.5,95.8333 216.5,92.1667 216.5,88.5 Z"/></g>
<g><path style="opacity:0.569" fill="#525252" d="M 641.5,100.5 C 641.5,104.167 641.5,107.833 641.5,111.5C 660.167,111.5 678.833,111.5 697.5,111.5C 678.674,112.497 659.674,112.83 640.5,112.5C 640.183,108.298 640.517,104.298 641.5,100.5 Z"/></g>
<g><path style="opacity:0.106" fill="#bcbcbb" d="M 158.5,136.5 C 177.993,135.503 197.66,135.17 217.5,135.5C 217.818,140.032 217.485,144.366 216.5,148.5C 216.5,144.5 216.5,140.5 216.5,136.5C 197.167,136.5 177.833,136.5 158.5,136.5 Z"/></g>
<g><path style="opacity:0.993" fill="#161715" d="M 996.5,159.5 C 1016.5,159.5 1036.5,159.5 1056.5,159.5C 1056.5,178.5 1056.5,197.5 1056.5,216.5C 1036.5,216.5 1016.5,216.5 996.5,216.5C 996.5,197.5 996.5,178.5 996.5,159.5 Z"/></g>
<g><path style="opacity:0.686" fill="#606060" d="M 996.5,159.5 C 1016.66,158.503 1036.99,158.17 1057.5,158.5C 1057.83,178.007 1057.5,197.341 1056.5,216.5C 1056.5,197.5 1056.5,178.5 1056.5,159.5C 1036.5,159.5 1016.5,159.5 996.5,159.5 Z"/></g>
<g><path style="opacity:0.591" fill="#646463" d="M 805.5,180.5 C 809.833,180.5 814.167,180.5 818.5,180.5C 818.828,192.012 818.495,203.346 817.5,214.5C 817.5,203.5 817.5,192.5 817.5,181.5C 813.298,181.817 809.298,181.483 805.5,180.5 Z"/></g>
<g><path style="opacity:0.263" fill="#a4a4a3" d="M 873.5,196.5 C 872.833,197.167 872.167,197.833 871.5,198.5C 871.281,197.325 871.614,196.325 872.5,195.5C 873.107,195.624 873.44,195.957 873.5,196.5 Z"/></g>
</svg>
